<svg width="29" height="29" viewBox="0 0 29 29" fill="none" xmlns="http://www.w3.org/2000/svg">
<g clip-path="url(#clip0_44_36)">
<path d="M23.1615 4.43912L4.40797 23.1609L5.77386 24.5291L24.5274 5.80733L23.1615 4.43912Z" fill="white"/>
<path d="M5.77387 4.43941L4.40799 5.80762L23.1616 24.5294L24.5274 23.1612L5.77387 4.43941Z" fill="white"/>
<path d="M17.4899 17.7153C14.8264 20.3785 13.551 24.0515 13.9912 27.7919L15.911 27.566C15.5404 24.4172 16.6144 21.3249 18.8567 19.0822C21.1816 16.7574 24.4966 15.6785 27.7188 16.1954L28.0252 14.2865C24.1912 13.6711 20.252 14.9532 17.4899 17.7153Z" fill="white"/>
<path d="M14.0137 1.18701L12.0856 1.32623C12.2995 4.29296 11.204 7.21289 9.07473 9.34218C6.98096 11.464 4.14315 12.5293 1.09005 12.3427L0.971783 14.2725C1.24309 14.2893 1.51213 14.2973 1.78021 14.2973C5.09171 14.2973 8.14571 13.0368 10.4464 10.7046C12.9682 8.18275 14.2683 4.71374 14.0137 1.18701Z" fill="white"/>
<path d="M14.5 0C6.50472 0 0 6.50472 0 14.5C0 22.4953 6.50472 29 14.5 29C22.4953 29 29 22.4953 29 14.5C29 6.50472 22.4953 0 14.5 0ZM14.5 27.0667C7.57059 27.0667 1.93331 21.4294 1.93331 14.5C1.93331 7.57059 7.57059 1.93331 14.5 1.93331C21.4294 1.93331 27.0667 7.57059 27.0667 14.5C27.0667 21.4294 21.4294 27.0667 14.5 27.0667Z" fill="white"/>
</g>
<defs>
<clipPath id="clip0_44_36">
<rect width="29" height="29" fill="white"/>
</clipPath>
</defs>
</svg>
